<svg width="24" height="24" viewBox="0 0 24 24" fill="none" xmlns="http://www.w3.org/2000/svg">
<path d="M13 6.5L12 7.5L11 6.5L9.5 5L6.5 4.5L4.5 5.5L3 8L4 12L6.5 15.5L10 18.5L12 19.5L14 18L18 15L20 13L20.5 11L21 7.5L19.5 6L17.5 4.5L15.5 5L13 6.5Z" fill="#626262"/>
<path fill-rule="evenodd" clip-rule="evenodd" d="M11.9997 20.1445L11.3911 19.7863C7.09286 17.2568 4.63777 14.74 3.41989 12.522C2.12195 10.1582 2.22507 8.14075 2.96272 6.69358C4.48246 3.71205 8.78026 2.80615 11.3721 6.08424L11.9996 6.87788L12.6272 6.08428C15.2195 2.80605 19.5175 3.71214 21.0372 6.69358C21.7749 8.14074 21.8779 10.1582 20.5799 12.522C19.3619 14.7399 16.9067 17.2568 12.6083 19.7863L11.9997 20.1445ZM11.9996 8.8126L10.4308 6.8285C8.41309 4.27657 5.17779 4.99034 4.03184 7.23854C3.49793 8.286 3.33892 9.88135 4.47174 11.9444C5.55151 13.9108 7.81509 16.2894 11.9997 18.7521C16.1845 16.2894 18.4482 13.9108 19.5281 11.9444C20.661 9.88129 20.502 8.28596 19.9681 7.23853C18.8222 4.99047 15.5866 4.27641 13.5684 6.8286L11.9996 8.8126Z" fill="white"/>
</svg>
