<svg width="24" height="24" viewBox="0 0 24 24" fill="none" xmlns="http://www.w3.org/2000/svg">
<path fill-rule="evenodd" clip-rule="evenodd" d="M5.59951 2.4C3.61129 2.4 1.99951 4.01177 1.99951 6V15C1.99951 16.9882 3.61129 18.6 5.59951 18.6H8.35098L10.9681 21.2172C11.593 21.842 12.606 21.842 13.2309 21.2172L15.848 18.6H18.5995C20.5877 18.6 22.1995 16.9882 22.1995 15V6C22.1995 4.01178 20.5877 2.4 18.5995 2.4H5.59951ZM15.5995 17.4H18.5995C19.925 17.4 20.9995 16.3255 20.9995 15V6C20.9995 4.67452 19.925 3.6 18.5995 3.6H5.59951C4.27403 3.6 3.19951 4.67452 3.19951 6V15C3.19951 16.3255 4.27403 17.4 5.59951 17.4H8.59951C8.75307 17.4 8.90662 17.4586 9.02378 17.5757L11.8167 20.3686C11.9729 20.5248 12.2261 20.5248 12.3824 20.3686L15.1752 17.5757C15.2924 17.4586 15.446 17.4 15.5995 17.4Z" fill="#222222"/>
</svg>
