<svg width="24" height="24" viewBox="0 0 24 24" fill="none" xmlns="http://www.w3.org/2000/svg">
<path fill-rule="evenodd" clip-rule="evenodd" d="M2.89971 12.1C2.89971 7.18467 6.88437 3.2 11.7997 3.2C16.715 3.2 20.6997 7.18467 20.6997 12.1C20.6997 13.9277 20.1488 15.6268 19.2039 17.0402C17.5827 15.7137 15.599 14.8138 13.424 14.5117C15.2194 13.8506 16.4999 12.1248 16.4999 10.0999C16.4999 7.50416 14.3956 5.3999 11.7999 5.3999C9.20411 5.3999 7.09985 7.50416 7.09985 10.0999C7.09985 12.1248 8.38033 13.8506 10.1757 14.5117C8.00067 14.8138 6.01687 15.7138 4.39566 17.0403C3.4507 15.6269 2.89971 13.9278 2.89971 12.1ZM5.12853 17.9913C6.75923 19.8365 9.14359 21 11.7997 21C14.4559 21 16.8403 19.8364 18.471 17.9911C16.6571 16.4971 14.3333 15.5999 11.7999 15.5999C9.26636 15.5999 6.94243 16.4972 5.12853 17.9913ZM11.7997 2C6.22163 2 1.69971 6.52192 1.69971 12.1C1.69971 17.6781 6.22163 22.2 11.7997 22.2C17.3778 22.2 21.8997 17.6781 21.8997 12.1C21.8997 6.52192 17.3778 2 11.7997 2ZM15.2998 10.1001C15.2998 12.0331 13.7328 13.6001 11.7998 13.6001C9.86681 13.6001 8.2998 12.0331 8.2998 10.1001C8.2998 8.1671 9.86681 6.6001 11.7998 6.6001C13.7328 6.6001 15.2998 8.1671 15.2998 10.1001Z" fill="#222222"/>
</svg>
