<svg width="24" height="24" viewBox="0 0 24 24" fill="none" xmlns="http://www.w3.org/2000/svg">
<path fill-rule="evenodd" clip-rule="evenodd" d="M16.3157 15.6628C17.6119 14.2125 18.4 12.2984 18.4 10.2002C18.4 5.67146 14.7287 2.0002 10.2 2.0002C5.67127 2.0002 2 5.67146 2 10.2002C2 14.7289 5.67127 18.4002 10.2 18.4002C12.2228 18.4002 14.0746 17.6678 15.5045 16.4536C15.5333 16.5155 15.5732 16.5734 15.6243 16.6245L20.7757 21.7759C21.01 22.0102 21.3899 22.0102 21.6243 21.7759C21.8586 21.5416 21.8586 21.1617 21.6243 20.9274L16.4728 15.7759C16.4255 15.7287 16.3724 15.691 16.3157 15.6628ZM17.2 10.2002C17.2 14.0662 14.066 17.2002 10.2 17.2002C6.33401 17.2002 3.2 14.0662 3.2 10.2002C3.2 6.3342 6.33401 3.2002 10.2 3.2002C14.066 3.2002 17.2 6.3342 17.2 10.2002Z" fill="url(#paint0_linear_25_640)"/>
<defs>
<linearGradient id="paint0_linear_25_640" x1="21.8" y1="2.00019" x2="0.0133708" y2="4.47704" gradientUnits="userSpaceOnUse">
<stop stop-color="#D03660"/>
<stop offset="1" stop-color="#D73B54"/>
</linearGradient>
</defs>
</svg>
