<svg width="24" height="24" viewBox="0 0 24 24" fill="none" xmlns="http://www.w3.org/2000/svg">
<path d="M21.7315 16.2142C21.6291 15.974 21.5268 15.7137 21.4244 15.4935C21.2607 15.1331 21.0969 14.7928 20.9536 14.4725L20.9331 14.4525C19.5207 11.4494 18.006 8.40641 16.4093 5.4034L16.3479 5.28328C16.1842 4.98298 16.0204 4.66266 15.8567 4.34234C15.652 3.98198 15.4473 3.6016 15.1198 3.24124C14.4647 2.44044 13.5231 2 12.5201 2C11.4966 2 10.5755 2.44044 9.89999 3.2012C9.59294 3.56156 9.36778 3.94194 9.16308 4.3023C8.99932 4.62262 8.83556 4.94294 8.67181 5.24324L8.6104 5.36336C7.03423 8.36637 5.49901 11.4094 4.0866 14.4124L4.06613 14.4525C3.92284 14.7728 3.75908 15.1131 3.59533 15.4735C3.49298 15.6937 3.39063 15.9339 3.28828 16.1942C3.02218 16.9349 2.9403 17.6356 3.04265 18.3564C3.26781 19.8579 4.2913 21.1191 5.7037 21.6797C6.23592 21.8999 6.7886 22 7.36175 22C7.52551 22 7.7302 21.98 7.89396 21.96C8.56946 21.8799 9.26543 21.6597 9.94093 21.2793C10.7802 20.8188 11.5785 20.1582 12.4792 19.1972C13.3798 20.1582 14.1986 20.8188 15.0174 21.2793C15.6929 21.6597 16.3889 21.8799 17.0644 21.96C17.2281 21.98 17.4328 22 17.5966 22C18.1697 22 18.7429 21.8999 19.2546 21.6797C20.6875 21.1191 21.6905 19.8378 21.9157 18.3564C22.0794 17.6557 21.9976 16.955 21.7315 16.2142ZM12.4996 17.2553C11.3943 15.8939 10.6778 14.6126 10.4322 13.5315C10.3299 13.0711 10.3094 12.6707 10.3708 12.3103C10.4117 11.99 10.5345 11.7097 10.6983 11.4695C11.0872 10.9289 11.7423 10.5886 12.4996 10.5886C13.257 10.5886 13.9325 10.9089 14.301 11.4695C14.4647 11.7097 14.5875 11.99 14.6285 12.3103C14.6899 12.6707 14.6694 13.0911 14.5671 13.5315C14.3214 14.5926 13.605 15.8739 12.4996 17.2553ZM20.667 18.1962C20.5238 19.2372 19.8073 20.1381 18.8043 20.5385C18.313 20.7387 17.7808 20.7988 17.2486 20.7387C16.7369 20.6787 16.2251 20.5185 15.6929 20.2182C14.956 19.8178 14.2191 19.1972 13.3594 18.2763C14.7104 16.6547 15.5292 15.1732 15.8362 13.8519C15.9795 13.2312 16 12.6707 15.9385 12.1502C15.8567 11.6496 15.6724 11.1892 15.3859 10.7888C14.7513 9.88789 13.6869 9.36737 12.4996 9.36737C11.3124 9.36737 10.248 9.90791 9.61341 10.7888C9.32684 11.1892 9.14261 11.6496 9.06073 12.1502C8.97885 12.6707 8.99932 13.2513 9.16308 13.8519C9.47012 15.1732 10.3094 16.6747 11.6399 18.2963C10.8007 19.2172 10.0433 19.8378 9.30637 20.2382C8.77416 20.5385 8.26241 20.6987 7.75067 20.7588C7.19799 20.8188 6.66578 20.7387 6.19498 20.5586C5.19196 20.1582 4.47552 19.2573 4.33224 18.2162C4.27083 17.7157 4.31177 17.2152 4.51646 16.6547C4.57787 16.4545 4.68022 16.2543 4.78257 16.014C4.92586 15.6937 5.08961 15.3534 5.25337 15.013L5.27384 14.973C6.68625 11.99 8.201 8.94695 9.77717 5.98398L9.83858 5.86386C10.0023 5.56356 10.1661 5.24324 10.3299 4.94294C10.4936 4.62262 10.6778 4.32232 10.903 4.06206C11.3329 3.58158 11.906 3.32132 12.5406 3.32132C13.1751 3.32132 13.7483 3.58158 14.1782 4.06206C14.4033 4.32232 14.5875 4.62262 14.7513 4.94294C14.9151 5.24324 15.0788 5.56356 15.2426 5.86386L15.304 5.98398C16.8597 8.96697 18.3744 12.01 19.7868 14.993V15.013C19.9506 15.3333 20.0939 15.6937 20.2576 16.014C20.36 16.2543 20.4623 16.4545 20.5238 16.6547C20.6875 17.1752 20.7489 17.6757 20.667 18.1962Z" fill="#222222"/>
</svg>
